<svg class="main-svg" xmlns="http://www.w3.org/2000/svg" xmlns:xlink="http://www.w3.org/1999/xlink" width="700" height="500" style="" viewBox="0 0 700 500"><rect x="0" y="0" width="700" height="500" style="fill: rgb(255, 255, 255); fill-opacity: 1;"/><defs id="defs-4dc956"><g class="clips"/><g class="gradients"/><g class="patterns"/></defs><g class="bglayer"/><g class="layer-below"><g class="imagelayer"/><g class="shapelayer"/></g><g class="cartesianlayer"/><g class="polarlayer"/><g class="smithlayer"/><g class="ternarylayer"/><g class="geolayer"/><g class="funnelarealayer"/><g class="pielayer"/><g class="iciclelayer"/><g class="treemaplayer"/><g class="sunburstlayer"><g class="trace sunburst" stroke-linejoin="round" style="opacity: 1;"><g class="slice cursor-pointer"><path class="surface" d="M350,240L440,240A90,90 0,1,0 337.47372060683205,329.1240277622387L350,240A0,0 0,1,1 350,240Z" style="pointer-events: none; stroke-width: 1; fill: rgb(99, 110, 250); fill-opacity: 1; stroke: rgb(255, 255, 255); stroke-opacity: 1;"/><g class="slicetext"><text data-notex="1" class="slicetext" text-anchor="middle" x="0" y="0" style="font-family: 'Open Sans', verdana, arial, sans-serif; font-size: 12px; fill: rgb(255, 255, 255); fill-opacity: 1; white-space: pre;" transform="translate(321.0375489201191,207.36101893092692)rotate(-40.99977489460093)"><tspan class="line" dy="0em" x="0" y="0">2star</tspan><tspan class="line" dy="1.3em" x="0" y="0">73%</tspan></text></g></g><g class="slice cursor-pointer"><path class="surface" d="M350,240L337.47372060683205,329.1240277622387A90,90 0,0,0 439.333651995912,250.9315424837157L350,240A0,0 0,0,1 350,240Z" style="pointer-events: none; stroke-width: 1; fill: rgb(239, 85, 59); fill-opacity: 1; stroke: rgb(255, 255, 255); stroke-opacity: 1;"/><g class="slicetext"><text data-notex="1" class="slicetext" text-anchor="middle" x="0" y="0" style="font-family: 'Open Sans', verdana, arial, sans-serif; font-size: 12px; fill: rgb(68, 68, 68); fill-opacity: 1; white-space: pre;" transform="translate(381.53963218740654,278.3615194217745)"><tspan class="line" dy="0em" x="0" y="0">6star</tspan><tspan class="line" dy="1.3em" x="0" y="0">25%</tspan></text></g></g><g class="slice cursor-pointer"><path class="surface" d="M350,240L439.333651995912,250.9315424837157A90,90 0,0,0 440,240.00000000000003L350,240A0,0 0,0,1 350,240Z" style="pointer-events: none; stroke-width: 1; fill: rgb(0, 204, 150); fill-opacity: 1; stroke: rgb(255, 255, 255); stroke-opacity: 1;"/><g class="slicetext"><text data-notex="1" class="slicetext" text-anchor="middle" x="0" y="0" style="font-family: 'Open Sans', verdana, arial, sans-serif; font-size: 12px; fill: rgb(68, 68, 68); fill-opacity: 1; white-space: pre;" transform="translate(434.58407213783977,244.17432782163604)scale(0.2964873903358163)rotate(3.4882310999142874)"><tspan class="line" dy="0em" x="0" y="0">8star</tspan><tspan class="line" dy="1.3em" x="0" y="0">2%</tspan></text></g></g><g class="slice"><path class="surface" d="M440,240L530,240A180,180 0,0,0 200.64598516459395,139.53419361521398L275.322992582297,189.767096807607A90,90 0,0,1 440,240Z" style="pointer-events: none; stroke-width: 1; fill: rgb(99, 110, 250); fill-opacity: 1; stroke: rgb(255, 255, 255); stroke-opacity: 1; opacity: 0.7;"/><g class="slicetext"><text data-notex="1" class="slicetext" text-anchor="middle" x="0" y="0" style="font-family: 'Open Sans', verdana, arial, sans-serif; font-size: 12px; fill: rgb(255, 255, 255); fill-opacity: 1; white-space: pre;" transform="translate(389.3884881527277,107.56922295554571)"><tspan class="line" dy="0em" x="0" y="0">Medium</tspan><tspan class="line" dy="1.3em" x="0" y="0">41%</tspan></text></g></g><g class="slice"><path class="surface" d="M275.322992582297,189.767096807607L200.64598516459395,139.53419361521398A180,180 0,0,0 228.11753273842572,372.4562726873713L289.0587663692129,306.22813634368566A90,90 0,0,1 275.322992582297,189.767096807607Z" style="pointer-events: none; stroke-width: 1; fill: rgb(99, 110, 250); fill-opacity: 1; stroke: rgb(255, 255, 255); stroke-opacity: 1; opacity: 0.7;"/><g class="slicetext"><text data-notex="1" class="slicetext" text-anchor="middle" x="0" y="0" style="font-family: 'Open Sans', verdana, arial, sans-serif; font-size: 12px; fill: rgb(255, 255, 255); fill-opacity: 1; white-space: pre;" transform="translate(215.7886545494216,252.50802630449496)"><tspan class="line" dy="0em" x="0" y="0">Light</tspan><tspan class="line" dy="1.3em" x="0" y="0">23%</tspan></text></g></g><g class="slice"><path class="surface" d="M289.0587663692129,306.22813634368566L228.11753273842572,372.4562726873713A180,180 0,0,0 324.9474412136642,418.2480555244774L337.4737206068321,329.1240277622387A90,90 0,0,1 289.0587663692129,306.22813634368566Z" style="pointer-events: none; stroke-width: 1; fill: rgb(99, 110, 250); fill-opacity: 1; stroke: rgb(255, 255, 255); stroke-opacity: 1; opacity: 0.7;"/><g class="slicetext"><text data-notex="1" class="slicetext" text-anchor="middle" x="0" y="0" style="font-family: 'Open Sans', verdana, arial, sans-serif; font-size: 12px; fill: rgb(255, 255, 255); fill-opacity: 1; white-space: pre;" transform="translate(290.2478388466713,362.1037672763714)"><tspan class="line" dy="0em" x="0" y="0">Heavy</tspan><tspan class="line" dy="1.3em" x="0" y="0">10%</tspan></text></g></g><g class="slice"><path class="surface" d="M337.47372060683205,329.1240277622387L324.94744121366404,418.2480555244774A180,180 0,0,0 517.9140639351292,304.84494685624566L433.9570319675646,272.4224734281228A90,90 0,0,1 337.47372060683205,329.1240277622387Z" style="pointer-events: none; stroke-width: 1; fill: rgb(239, 85, 59); fill-opacity: 1; stroke: rgb(255, 255, 255); stroke-opacity: 1; opacity: 0.7;"/><g class="slicetext"><text data-notex="1" class="slicetext" text-anchor="middle" x="0" y="0" style="font-family: 'Open Sans', verdana, arial, sans-serif; font-size: 12px; fill: rgb(68, 68, 68); fill-opacity: 1; white-space: pre;" transform="translate(418.39991232415997,353.0845387799578)"><tspan class="line" dy="0em" x="0" y="0">Medium</tspan><tspan class="line" dy="1.3em" x="0" y="0">21%</tspan></text></g></g><g class="slice"><path class="surface" d="M433.9570319675646,272.4224734281228L517.9140639351292,304.84494685624566A180,180 0,0,0 527.5271523307799,269.73399040364546L438.76357616538996,254.86699520182273A90,90 0,0,1 433.9570319675646,272.4224734281228Z" style="pointer-events: none; stroke-width: 1; fill: rgb(239, 85, 59); fill-opacity: 1; stroke: rgb(255, 255, 255); stroke-opacity: 1; opacity: 0.7;"/><g class="slicetext"><text data-notex="1" class="slicetext" text-anchor="middle" x="0" y="0" style="font-family: 'Open Sans', verdana, arial, sans-serif; font-size: 12px; fill: rgb(68, 68, 68); fill-opacity: 1; white-space: pre;" transform="translate(505.03391127623115,282.5886261371749)scale(0.9713838992211291)rotate(-74.68813174036177)"><tspan class="line" dy="0em" x="0" y="0">Light</tspan><tspan class="line" dy="1.3em" x="0" y="0">3%</tspan></text></g></g><g class="slice"><path class="surface" d="M438.76357616538996,254.86699520182273L527.5271523307799,269.73399040364546A180,180 0,0,0 528.667303991824,261.8630849674314L439.333651995912,250.9315424837157A90,90 0,0,1 438.76357616538996,254.86699520182273Z" style="pointer-events: none; stroke-width: 1; fill: rgb(239, 85, 59); fill-opacity: 1; stroke: rgb(255, 255, 255); stroke-opacity: 1; opacity: 0.7;"/><g class="slicetext"><text data-notex="1" class="slicetext" text-anchor="middle" x="0" y="0" style="font-family: 'Open Sans', verdana, arial, sans-serif; font-size: 12px; fill: rgb(68, 68, 68); fill-opacity: 1; white-space: pre;" transform="translate(523.4327611452411,264.32820587788456)scale(0.23797869550344017)rotate(8.242333341489314)"><tspan class="line" dy="0em" x="0" y="0">Heavy</tspan><tspan class="line" dy="1.3em" x="0" y="0">1%</tspan></text></g></g><g class="slice"><path class="surface" d="M439.333651995912,250.9315424837157L528.667303991824,261.8630849674314A180,180 0,0,0 529.9510085369658,244.19934834573974L439.9755042684829,242.09967417286987A90,90 0,0,1 439.333651995912,250.9315424837157Z" style="pointer-events: none; stroke-width: 1; fill: rgb(0, 204, 150); fill-opacity: 1; stroke: rgb(255, 255, 255); stroke-opacity: 1; opacity: 0.7;"/><g class="slicetext"><text data-notex="1" class="slicetext" text-anchor="middle" x="0" y="0" style="font-family: 'Open Sans', verdana, arial, sans-serif; font-size: 12px; fill: rgb(68, 68, 68); fill-opacity: 1; white-space: pre;" transform="translate(517.6282388310299,250.57351723071258)scale(0.48554121325859717)rotate(4.15663878924579)"><tspan class="line" dy="0em" x="0" y="0">Medium</tspan><tspan class="line" dy="1.3em" x="0" y="0">2%</tspan></text></g></g><g class="slice"><path class="surface" d="M439.9755042684829,242.09967417286987L529.9510085369658,244.19934834573974A180,180 0,0,0 529.9981477012213,240.81659300102376L439.99907385061067,240.40829650051188A90,90 0,0,1 439.9755042684829,242.09967417286987Z" style="pointer-events: none; stroke-width: 1; fill: rgb(0, 204, 150); fill-opacity: 1; stroke: rgb(255, 255, 255); stroke-opacity: 1; opacity: 0.7;"/><g class="slicetext"><text data-notex="1" class="slicetext" text-anchor="middle" x="0" y="0" style="font-family: 'Open Sans', verdana, arial, sans-serif; font-size: 12px; fill: rgb(68, 68, 68); fill-opacity: 1; white-space: pre;" transform="translate(527.4050567008227,242.1291424730637)scale(0.10378841054220178)rotate(0.7983729477435872)"><tspan class="line" dy="0em" x="0" y="0">Light</tspan><tspan class="line" dy="1.3em" x="0" y="0">0.299%</tspan></text></g></g><g class="slice"><path class="surface" d="M439.99907385061067,240.40829650051188L529.9981477012213,240.81659300102376A180,180 0,0,0 530,240.00000000000006L440,240.00000000000003A90,90 0,0,1 439.99907385061067,240.40829650051188Z" style="pointer-events: none; stroke-width: 1; fill: rgb(0, 204, 150); fill-opacity: 1; stroke: rgb(255, 255, 255); stroke-opacity: 1; opacity: 0.7;"/><g class="slicetext"><text data-notex="1" class="slicetext" text-anchor="middle" x="0" y="0" style="font-family: 'Open Sans', verdana, arial, sans-serif; font-size: 12px; fill: rgb(68, 68, 68); fill-opacity: 1; white-space: pre;" transform="translate(529.2633929953403,240.32209969312652)scale(0.025578160184549736)rotate(0.12996525841208495)"><tspan class="line" dy="0em" x="0" y="0">Heavy</tspan><tspan class="line" dy="1.3em" x="0" y="0">0.0722%</tspan></text></g></g></g></g><g class="glimages"/><defs id="topdefs-4dc956"><g class="clips"/></defs><g class="layer-above"><g class="imagelayer"/><g class="shapelayer"/></g><g class="infolayer"><g class="g-gtitle"/></g></svg>